PathFileType	4	(X/Y/Z)	C:\Users\Ali Mert BOSTAN\Desktop\Yazýlým\Hacettepe-Bil-D-nem-Proje\basket_Sports2D\basket_Sports2D_px_person00.trc
DataRate	CameraRate	NumFrames	NumMarkers	Units	OrigDataRate	OrigDataStartFrame	OrigNumFrames
120.0	120.0	12	22	m	120.0	99	266
Frame#	Time	Hip			RHip			RKnee			RAnkle			RBigToe			RSmallToe			RHeel			LHip			LKnee			LAnkle			LBigToe			LSmallToe			LHeel			Neck			Head			Nose			RShoulder			RElbow			RWrist			LShoulder			LElbow			LWrist		
		X1	Y1	Z1	X2	Y2	Z2	X3	Y3	Z3	X4	Y4	Z4	X5	Y5	Z5	X6	Y6	Z6	X7	Y7	Z7	X8	Y8	Z8	X9	Y9	Z9	X10	Y10	Z10	X11	Y11	Z11	X12	Y12	Z12	X13	Y13	Z13	X14	Y14	Z14	X15	Y15	Z15	X16	Y16	Z16	X17	Y17	Z17	X18	Y18	Z18	X19	Y19	Z19	X20	Y20	Z20	X21	Y21	Z21	X22	Y22	Z22
99	0.825	372.0262978799633	602.477666504423	0.0	382.3539519307257	599.2740655396556	0.0	405.15783734639183	794.4741859046089	0.0	378.4346146892256	990.5438379025425	0.0	450.858564874546	1011.0839629307444	0.0	439.9042588782004	1021.7027979043145	0.0	357.98711294014026	1009.5872276053615	0.0	361.28553283506614	597.0238512482493	0.0	368.8593405542871	788.6818983948564	0.0	351.96647343734213	981.3274971996216	0.0	432.2102117882862	998.9046456644123	0.0	422.02018192968535	996.3424238230925	0.0	332.1641868391942	1001.0889636154515	0.0	394.88927116721516	344.2381105664263	0.0	405.5795658897725	229.74540512786567	0.0	446.34402928187825	292.9151038690884	0.0	403.1990655247963	369.3196364538095	0.0	504.98348160639534	444.93431608188627	0.0	551.3857481856628	366.58824213705117	0.0	367.72274720514463	368.94250934977606	0.0	482.05010522683887	440.6963703404191	0.0	537.4926955399641	369.35612918093386	0.0
100	0.8333333333333334	372.15640024586975	602.5532726546865	0.0	382.6558092360434	599.4110014099103	0.0	405.50763136475604	794.520489948945	0.0	378.47577139089316	990.5951179862027	0.0	450.8812535056811	1011.0161886194751	0.0	439.9907251289623	1021.7077608668495	0.0	358.0190285788281	1009.734608665462	0.0	361.2009716508693	597.1253264313311	0.0	368.7753008216814	788.7138776730101	0.0	351.7583707267737	981.430140044554	0.0	432.1215582286374	998.7947122580209	0.0	421.8704749199057	996.24254681074	0.0	332.092530685076	1001.0747148558281	0.0	394.6571031915646	344.18510168477246	0.0	405.24493803816256	229.74845117127205	0.0	446.2162824672646	292.62139031650815	0.0	403.4356380711845	369.1855680200578	0.0	505.80063902417817	443.73986941443735	0.0	551.3721646795844	364.81499086770117	0.0	367.42456283467374	368.8098095174489	0.0	481.87724832355553	439.26594658600226	0.0	537.0710233653022	367.17683907477084	0.0
101	0.8416666666666667	372.30309925041576	602.6077090951444	0.0	382.95971026728625	599.5356175934165	0.0	405.89101022785985	794.5549278472846	0.0	378.53925581164737	990.6133441721479	0.0	450.91552121044305	1010.9571221887445	0.0	440.0613138829002	1021.737019681876	0.0	358.0754384000227	1009.8463440653535	0.0	361.12039751778764	597.2124823254185	0.0	368.67484861610853	788.7290261809571	0.0	351.5368268900355	981.4906761040415	0.0	432.0229345189078	998.6922410163952	0.0	421.68592389245117	996.1247187329767	0.0	332.0102427336577	1001.0041301346191	0.0	394.445049124951	344.1293498057802	0.0	404.9362492950094	229.74358658260755	0.0	446.0758684750671	292.31426741754433	0.0	403.68856438882636	369.0449067648749	0.0	506.62174177421156	442.54856590902057	0.0	551.3260632395105	363.0069498773534	0.0	367.13852019094924	368.67859159337087	0.0	481.7094207648515	437.8137149035537	0.0	536.7013635134772	364.96335963605134	0.0
102	0.85	372.4720665302551	602.6277657346917	0.0	383.2521614832222	599.6399909809218	0.0	406.27666109119474	794.5787349954936	0.0	378.61120486130943	990.6095625228976	0.0	450.9670407671444	1010.8958326259999	0.0	440.1206775456589	1021.7831097834625	0.0	358.13503914220445	1009.9190004875802	0.0	361.0506835115991	597.2774430328685	0.0	368.5687117509706	788.721307395977	0.0	351.3170678216213	981.5016504933132	0.0	431.93539185112604	998.5773980891578	0.0	421.48795556511595	995.98593776155	0.0	331.9110606698348	1000.8722893356925	0.0	394.25016433189967	344.0745997931265	0.0	404.6655729403272	229.72821476449857	0.0	445.9168946208964	291.9992223333221	0.0	403.9426146149192	368.90936527693606	0.0	507.4508693190275	441.35815259638775	0.0	551.2476099719494	361.16075909618087	0.0	366.87751401662604	368.548281907805	0.0	481.5802883608143	436.3399711299592	0.0	536.3930193845738	362.7223285708335	0.0
103	0.8583333333333333	372.66278959007303	602.5975744909679	0.0	383.51833007821887	599.7170407205033	0.0	406.6258789754236	794.5884329186099	0.0	378.6714614276395	990.5903464871606	0.0	451.03134364987903	1010.8217062538795	0.0	440.1667966661379	1021.8307223407153	0.0	358.1698761937614	1009.9505222631195	0.0	361.0013975819023	597.3128314383428	0.0	368.47622943721467	788.6845051409513	0.0	351.1237481826213	981.463359326685	0.0	431.88695903570914	998.4308879762259	0.0	421.3102243489629	995.8237948868059	0.0	331.7871315634741	1000.6789158831206	0.0	394.0693186931709	344.02114870788415	0.0	404.4410481700923	229.69729704659636	0.0	445.7323281483674	291.6810134901921	0.0	404.1769976038705	368.7899212229805	0.0	508.28977594123614	440.16197163242197	0.0	551.1447589814632	359.2712071556174	0.0	366.65306405548273	368.41976198448293	0.0	481.5205106423118	434.85036069327253	0.0	536.1524997371935	360.4549405756396	0.0
104	0.8666666666666667	372.86487823695836	602.5081680321605	0.0	383.75089226776515	599.7587348478581	0.0	406.92222391267893	794.5783084512703	0.0	378.71704239067316	990.5553028522327	0.0	451.09726569948947	1010.7324009036927	0.0	440.1973445667659	1021.8633350002434	0.0	358.17636733264817	1009.9352518606505	0.0	360.97262085455344	597.3114694194819	0.0	368.4083802505924	788.61037783621	0.0	350.9731617306324	981.380117893164	0.0	431.8839157992902	998.2473337746044	0.0	421.1757876705678	995.6394053741084	0.0	331.6390109313689	1000.4276647974718	0.0	393.90027676871256	343.9636184481459	0.0	404.26413894479253	229.64804242042732	0.0	445.52111768122154	291.3599512539123	0.0	404.3801601608704	368.6908038997375	0.0	509.1379630170831	438.9538517354533	0.0	551.0263727869414	357.33756607063526	0.0	366.46892506058737	368.2908702866659	0.0	481.5450704724755	433.3529665660588	0.0	535.9750230334245	358.1626579965495	0.0
105	0.875	373.0685242285124	602.3633586419734	0.0	383.9452736572398	599.7598117168025	0.0	407.17027830099266	794.5454054511885	0.0	378.75866252690577	990.5000361729309	0.0	451.15927607239337	1010.6334299448918	0.0	440.2137566252826	1021.8688206914777	0.0	358.17037911004473	1009.8694883971586	0.0	360.9677514826453	597.2734069243825	0.0	368.37137529260303	788.4948978369802	0.0	350.87047970314603	981.2585180411965	0.0	431.9166803496124	998.0360584508695	0.0	421.10006684146765	995.4398326264962	0.0	331.4747098122319	1000.1283977964039	0.0	393.74142574647857	343.89512655507707	0.0	404.1287303150003	229.57711092833623	0.0	445.2886427540841	291.0335945171476	0.0	404.54722985217956	368.609441326279	0.0	509.99328441727823	437.7294671957649	0.0	550.8952534915579	355.36537565407394	0.0	366.32832833240684	368.15647278673737	0.0	481.6584903284141	431.86255587461545	0.0	535.8528326927766	355.8576651955648	0.0
106	0.8833333333333333	373.2718662996955	602.1768914578475	0.0	384.09557086518015	599.7215187989526	0.0	407.3805470572123	794.4903338189425	0.0	378.80716932854955	990.4213955520399	0.0	451.22501098231356	1010.5295564685723	0.0	440.2219572432986	1021.8401754974725	0.0	358.1692322539701	1009.759812728291	0.0	361.00116129784357	597.2069990659827	0.0	368.37111494805885	788.3433043846633	0.0	350.81331672903474	981.1111914228663	0.0	431.9808823143085	997.8120748991437	0.0	421.09960952827225	995.2366451795253	0.0	331.30543654316784	999.7989029226549	0.0	393.59153562787617	343.81139979433146	0.0	404.0244587838623	229.47991562689802	0.0	445.0435466630931	290.7040821211094	0.0	404.6737594361249	368.53943222198	0.0	510.85258384653156	436.48553870007356	0.0	550.7459049462594	353.36524665869507	0.0	366.2356680108611	368.01174743258235	0.0	481.85818838166244	430.3994940584563	0.0	535.7810298042501	353.5658663896007	0.0
107	0.8916666666666666	373.4741689311221	601.9679092320522	0.0	384.2006852476884	599.6514306613828	0.0	407.56440222832526	794.4160510855303	0.0	378.8711087640989	990.322740956426	0.0	451.30452829865993	1010.4238482138734	0.0	440.2290712205196	1021.776931943888	0.0	358.186643041153	1009.6238795210816	0.0	361.08149948950467	597.1184322004099	0.0	368.4050815607445	788.1675496694568	0.0	350.79495874400845	980.9568789890197	0.0	432.075110159476	997.5913409088133	0.0	421.1798670919181	995.0440595297545	0.0	331.1448161909844	999.4631295927217	0.0	393.4506035267605	343.71136790174336	0.0	403.94165601058654	229.35588565051285	0.0	444.7972820331752	290.37844716401554	0.0	404.75884667619476	368.4731670912494	0.0	511.711120268932	435.2195241972807	0.0	550.568833428097	351.35133155007924	0.0	366.19038280207815	367.85380414485473	0.0	482.1358231800042	428.9721927004683	0.0	535.7525896513438	351.31127457886555	0.0
108	0.9	373.6692318323279	601.759227931788	0.0	384.2722930431042	599.5628775840223	0.0	407.73071225560454	794.329962674517	0.0	378.95730576770916	990.2144994420754	0.0	451.4010435423166	1010.3224630618996	0.0	440.2417700643736	1021.6849166971544	0.0	358.2305954068314	1009.4822029485448	0.0	361.1997752465511	597.0084108374805	0.0	368.45887536664753	787.9812511335257	0.0	350.81050297237533	980.8097264154216	0.0	432.190954979669	997.3826735193023	0.0	421.3194647716677	994.8706238031707	0.0	331.00388943573273	999.1386215185875	0.0	393.3222896057607	343.59633818517193	0.0	403.8729127195871	229.21121183422017	0.0	444.56376960129455	290.0615809532075	0.0	404.80983414006715	368.40577018204	0.0	512.5645678601571	433.9308381587967	0.0	550.3562963681242	349.33717230047336	0.0	366.18549516641855	367.68177446315656	0.0	482.47484105456806	427.5667722491573	0.0	535.7498959758966	349.10057708769415	0.0
109	0.9083333333333333	373.8484326875368	601.5726666086871	0.0	384.33584489630397	599.4733236621242	0.0	407.88016188222133	794.2470610397324	0.0	379.0659871849518	990.1079027628613	0.0	451.5183107079299	1010.2307954647887	0.0	440.2672635884876	1021.570248234376	0.0	358.29827017941886	1009.3482757901344	0.0	361.33564755502016	596.8814152278585	0.0	368.512013770316	787.7987248642139	0.0	350.8594808926478	980.6716243815316	0.0	432.31997129063086	997.177586230919	0.0	421.47450811154414	994.7087613982105	0.0	330.88421978275	998.8253511144164	0.0	393.21355268758225	343.4703330949344	0.0	403.8121222569269	229.05499373254017	0.0	444.3550223726727	289.7538983979649	0.0	404.84508230726215	368.33809925310953	0.0	513.4131187465648	432.62417429070575	0.0	550.1019732843666	347.3348802845699	0.0	366.20607620536737	367.4976600543438	0.0	482.8137495103511	426.1657035249285	0.0	535.7361151211115	346.9319134504534	0.0
110	0.9166666666666666	374.00478926142347	601.4217764895316	0.0	384.42388789554064	599.3974216445151	0.0	408.00702523632924	794.1872543422681	0.0	379.18829845397613	990.0082968824345	0.0	451.6639701333635	1010.147467712349	0.0	440.31040153473543	1021.4360583518019	0.0	358.3766060392916	1009.2256838677546	0.0	361.4640447749413	596.7481429160467	0.0	368.5428341846226	787.6341918673431	0.0	350.94148749623434	980.5377648173837	0.0	432.46103712159993	996.9578374356441	0.0	421.5967744510121	994.540451299903	0.0	330.7810427820576	998.5138062204617	0.0	393.12892415596673	343.3403744574167	0.0	403.7543742278598	228.89417634358108	0.0	444.1758536680561	289.4548374687311	0.0	404.89375243273656	368.2733597795657	0.0	514.2603445604352	431.30785460091306	0.0	549.7983588479071	345.35534339591675	0.0	366.2249359506221	367.30704759809333	0.0	483.02314850744096	424.7687102209108	0.0	535.655726345841	344.80869246990926	0.0
